<svg xmlns="http://www.w3.org/2000/svg" width="7" height="12" viewBox="0 0 7 12">
  <path fill="#000000" fill-rule="evenodd" d="M2.01984495,5.65809643 L6.25770709,1.42089158 C6.58109261,1.09619148 6.58076397,0.568060853 6.25672116,0.243032109 C5.93169241,-0.081010703 5.40356179,-0.081010703 5.07919033,0.243032109 L0.243853719,5.06916669 C0.08676197,5.22691573 8.8817842e-16,5.43560456 8.8817842e-16,5.65842507 C8.8817842e-16,5.88124559 0.08676197,6.09026306 0.244182363,6.24768345 L5.07919033,11.073818 L5.07919033,11.073818 C5.23661072,11.2309098 5.4456282,11.3173431 5.66779142,11.3173431 C5.88995465,11.3173431 6.09930077,11.2309098 6.25770709,11.0728321 C6.58076397,10.748132 6.58076397,10.22033 6.2570498,9.8953013 L2.01984495,5.65809643 Z" transform="rotate(180 3.25 5.659)"/>
</svg>